# xmcd CD database file
#
# Track frame offsets:
#	225
#	11096
#	25224
#	38994
#	51918
#	66312
#	77347
#	89463
#	100286
#	112088
#	122051
#	136235
#	148889
#	161477
#	175803
#	190891
#	206703
#	217885
#
# Disc length: 3073 seconds
#
# Revision: 2
# Processed by: cddbd v1.5.1PL0 Copyright (c) Steve Scherf et al.
# Submitted via: CDex 1.51
#
DISCID=050bfe12
DTITLE=Ray Charles - Kiss Me Baby
DYEAR=1900
DGENRE=Jazz
TTITLE0=I'm Sitting' On The Top Of The World
TTITLE1=Kiss Me Baby
TTITLE2=I´m Gonna Drown Myself
TTITLE3=Snow Is Falling
TTITLE4=Blues Is My Middle Name
TTITLE5=I Wonder Who´s Kissing Her Now
TTITLE6=See See Rider
TTITLE7=Hey Now
TTITLE8=Tell Me Baby
TTITLE9=All Toy Myself Alone
TTITLE10=Baby, Let Me Hold Your Hand
TTITLE11=I Won´t Let You Go
TTITLE12=I'm Glad Four You Sake
TTITLE13=Walkin' And Talkin'
TTITLE14=I´m Wonderin' And Wonderin'
TTITLE15=I Found My Baby There
TTITLE16=A Sentimental Blues
TTITLE17=Rockin' Chair Blues
EXTD=
EXTT0=
EXTT1=
EXTT2=
EXTT3=
EXTT4=
EXTT5=
EXTT6=
EXTT7=
EXTT8=
EXTT9=
EXTT10=
EXTT11=
EXTT12=
EXTT13=
EXTT14=
EXTT15=
EXTT16=
EXTT17=
PLAYORDER=
